<?xml version="1.0" standalone="no"?>
<!DOCTYPE svg PUBLIC "-//W3C//DTD SVG 20010904//EN"
 "http://www.w3.org/TR/2001/REC-SVG-20010904/DTD/svg10.dtd">
<svg version="1.0" xmlns="http://www.w3.org/2000/svg"
 width="300.000000pt" height="300.000000pt" viewBox="0 0 300.000000 300.000000"
 preserveAspectRatio="xMidYMid meet">
<metadata>
Created by potrace 1.11, written by Peter Selinger 2001-2013
</metadata>
<g transform="translate(0.000000,300.000000) scale(0.100000,-0.100000)"
fill="#000000" stroke="none">
<path d="M1490 2963 c-14 -2 -47 -11 -74 -19 -27 -8 -68 -14 -91 -14 -22 0
-47 -6 -54 -12 -10 -11 -11 -10 -6 5 10 25 -8 21 -35 -8 -17 -18 -33 -24 -60
-23 -37 1 -60 -7 -60 -21 0 -9 31 -8 47 2 6 4 15 2 18 -4 9 -13 2 -20 -22 -24
-10 -1 -17 -7 -16 -12 1 -5 -3 -10 -10 -11 -7 0 -29 -3 -51 -7 -32 -4 -37 -3
-32 10 3 8 2 15 -2 15 -10 0 -42 -38 -42 -49 0 -5 -7 -12 -16 -15 -8 -3 -12
-2 -9 4 11 17 -10 11 -33 -10 -12 -12 -22 -28 -22 -36 0 -8 -5 -25 -11 -36 -9
-17 -13 -18 -20 -7 -5 8 -7 -10 -4 -46 3 -36 2 -52 -3 -41 -12 28 -23 5 -16
-32 3 -17 19 -39 35 -51 17 -13 27 -27 22 -33 -7 -13 -5 -102 3 -130 6 -22 24
-24 24 -3 0 8 7 33 16 56 18 42 76 89 113 89 11 0 40 9 65 20 25 10 46 17 46
13 0 -3 6 -1 13 5 16 13 72 24 119 24 21 -1 38 3 38 7 0 12 118 13 125 1 3 -5
19 -10 34 -10 30 0 67 -32 56 -49 -10 -17 16 -13 37 6 10 9 21 13 25 9 4 -4 2
-11 -6 -15 -7 -5 -12 -12 -11 -17 2 -15 29 -26 43 -17 6 4 4 -5 -6 -20 -9 -15
-13 -27 -8 -27 5 0 13 5 16 10 4 6 10 8 15 5 5 -3 19 -1 30 5 16 8 18 8 14 -4
-4 -11 0 -13 15 -9 12 3 21 1 21 -6 0 -6 5 -11 10 -11 6 0 10 7 10 16 0 9 6
14 13 11 6 -2 11 -14 9 -27 -2 -19 0 -21 13 -10 12 10 15 10 16 -1 1 -8 2 -23
3 -34 0 -11 -2 -28 -6 -37 -5 -10 -3 -20 3 -24 6 -3 9 -17 6 -31 -2 -13 2 -30
9 -38 10 -10 11 -14 2 -17 -8 -3 -2 -15 15 -32 15 -15 27 -31 27 -36 0 -6 6
-10 14 -10 17 0 39 -26 43 -50 2 -15 -10 -18 -111 -24 -117 -8 -213 -1 -256
17 -14 6 -27 10 -30 10 -86 -10 -142 -15 -172 -17 -40 -2 -53 -9 -53 -32 0 -7
-4 -14 -10 -13 -5 0 -9 7 -7 15 4 21 -32 17 -53 -6 -21 -23 -13 -55 11 -46 14
5 15 4 4 -9 -18 -22 -73 -19 -95 5 -10 11 -26 20 -35 20 -10 0 -23 6 -29 13
-6 8 -25 13 -43 12 -25 -2 -39 5 -60 28 -16 16 -28 35 -28 42 0 31 -21 24 -35
-12 -8 -21 -22 -51 -30 -66 -8 -16 -15 -35 -15 -42 0 -8 -18 -19 -42 -25 -90
-23 -93 -25 -96 -57 -2 -23 5 -40 26 -65 16 -18 38 -53 49 -78 25 -55 55 -88
88 -96 14 -3 25 -11 24 -18 -1 -6 -1 -20 0 -30 1 -19 2 -19 14 -2 16 22 87 32
115 17 18 -9 23 -8 32 8 5 11 10 30 10 43 0 47 67 188 90 188 13 0 27 -18 61
-78 17 -30 45 -62 67 -75 39 -25 138 -42 156 -28 6 5 28 14 49 21 20 6 35 16
32 21 -4 5 -2 9 4 9 5 0 23 11 40 25 22 19 33 40 41 79 10 50 13 54 58 74 67
30 170 54 195 46 12 -3 30 -13 40 -22 19 -16 23 -57 7 -67 -11 -7 -3 -53 14
-74 8 -11 8 -13 0 -8 -6 3 -16 -5 -23 -19 -6 -14 -8 -23 -3 -20 4 2 8 -4 8
-14 0 -14 -4 -16 -18 -9 -14 7 -16 6 -12 -6 4 -8 2 -15 -4 -15 -6 0 -12 6 -15
13 -2 6 -3 -8 -2 -33 1 -25 -2 -55 -8 -67 -5 -12 -7 -29 -4 -37 8 -19 5 -32
-5 -29 -5 2 -8 -2 -8 -7 0 -6 5 -10 10 -10 6 0 10 -7 10 -16 0 -8 -4 -12 -10
-9 -9 6 -14 -8 -11 -27 0 -5 -4 -8 -10 -8 -6 0 -9 -6 -6 -13 3 -7 -1 -21 -9
-32 -8 -10 -14 -28 -14 -39 -1 -21 -1 -21 -17 -1 -13 16 -15 17 -10 3 8 -23
-9 -23 -18 0 -7 16 -8 15 -15 -3 -5 -11 -6 -31 -4 -45 4 -21 2 -20 -13 8 -13
26 -15 37 -6 51 8 13 8 22 1 29 -7 7 -6 16 1 30 14 26 14 35 1 27 -6 -4 -17
-21 -24 -38 -8 -18 -15 -26 -15 -19 -2 25 -19 11 -25 -20 -3 -18 -13 -46 -21
-61 -8 -15 -12 -34 -9 -41 3 -8 0 -17 -7 -22 -7 -4 -10 -3 -6 3 8 12 -10 80
-23 88 -11 7 -8 -55 4 -73 4 -7 5 -16 2 -19 -3 -4 -6 -1 -6 5 0 17 -27 15 -33
-2 -4 -10 -1 -13 9 -9 8 3 14 -1 14 -11 0 -10 -6 -14 -17 -10 -16 5 -16 4 1
-10 10 -8 23 -13 27 -10 4 2 5 -15 2 -38 -3 -24 -7 -53 -7 -65 -1 -14 -5 -18
-11 -12 -16 16 -24 10 -31 -26 -3 -19 -10 -32 -15 -30 -4 3 -5 13 -2 22 4 11
2 14 -8 11 -8 -3 -13 -13 -13 -22 1 -10 -6 -16 -17 -16 -11 0 -19 7 -20 18 0
11 -2 12 -6 4 -3 -7 0 -19 7 -26 16 -20 -37 -69 -67 -61 -12 3 -24 0 -27 -8
-3 -6 -3 -1 0 13 5 20 4 23 -7 13 -10 -10 -16 -9 -31 3 -16 15 -19 15 -43 0
-16 -10 -25 -12 -25 -5 0 9 -3 9 -14 0 -15 -13 -27 4 -18 27 3 10 9 9 23 -4
16 -14 22 -15 32 -4 9 10 9 11 0 6 -7 -4 -17 2 -23 14 -6 11 -17 20 -24 20
-11 0 -14 15 -7 53 0 4 6 6 13 5 6 -2 12 9 13 25 1 15 10 36 20 47 24 27 17
32 -30 17 -30 -9 -39 -9 -43 1 -2 7 -10 12 -18 12 -8 0 -14 7 -14 15 0 22 -16
18 -37 -9 l-19 -24 -11 38 c-9 36 -8 39 14 45 18 4 23 10 18 24 -3 12 0 21 10
25 11 4 14 2 9 -7 -5 -7 -1 -7 10 2 9 8 36 18 59 22 23 4 67 15 97 25 30 9 64
17 75 18 11 0 26 5 33 9 6 5 17 5 22 2 6 -4 17 -2 25 5 10 8 15 8 20 0 5 -8
15 -4 31 11 l23 22 7 -27 c7 -29 44 -57 45 -34 0 7 4 34 8 60 12 75 -21 127
-103 158 -38 14 -32 -1 12 -28 22 -14 28 -20 15 -17 -27 7 -30 -7 -7 -29 8 -9
12 -16 7 -16 -5 0 -14 5 -20 11 -8 8 -11 6 -10 -7 1 -12 -4 -19 -15 -18 -10 1
-18 -3 -18 -8 0 -6 -7 -7 -16 -4 -9 3 -12 2 -9 -5 4 -6 13 -8 20 -5 7 2 16 2
19 -1 9 -10 -19 -30 -53 -38 -19 -4 -48 -15 -65 -25 -34 -20 -130 -34 -120
-18 4 7 0 7 -12 1 -22 -12 -104 -5 -104 8 0 5 6 9 13 10 6 0 28 3 47 5 19 3
43 5 53 6 11 2 17 11 17 26 0 20 3 22 14 13 11 -9 15 -8 20 4 3 9 2 14 -2 12
-4 -3 -13 1 -19 9 -18 18 3 29 24 12 12 -9 15 -10 9 0 -4 8 4 22 24 38 35 30
34 44 -2 20 -12 -8 -45 -20 -73 -27 -27 -6 -57 -18 -66 -26 -12 -10 -28 -12
-55 -7 -22 5 -52 7 -67 7 -21 -1 -31 5 -39 23 -13 28 -26 31 -35 8 -3 -8 -12
-13 -20 -9 -11 3 -13 1 -9 -10 3 -8 2 -15 -3 -15 -10 0 -29 22 -29 33 0 18
-12 19 -18 3 -8 -21 29 -150 60 -208 36 -69 61 -108 68 -108 12 0 79 -120 73
-130 -3 -5 -1 -10 4 -10 6 0 11 -11 11 -25 0 -14 9 -44 20 -66 19 -36 19 -42
6 -72 -33 -74 -57 -205 -55 -304 l1 -58 13 81 c14 93 23 124 34 124 22 0 69
-90 57 -109 -7 -11 59 -151 71 -151 3 0 4 3 0 6 -3 4 0 13 8 20 16 17 29 18
19 3 -4 -7 -1 -10 7 -7 10 3 14 19 13 51 -1 26 2 44 7 41 5 -3 9 2 9 10 0 23
6 20 52 -24 40 -38 72 -55 51 -27 -5 6 -10 23 -11 36 0 13 -9 32 -18 42 -9 11
-12 19 -7 19 6 0 10 7 9 16 0 11 11 21 32 28 18 6 30 15 25 20 -4 4 5 4 21 0
25 -6 27 -5 18 12 -7 13 -7 25 0 38 5 9 7 20 4 23 -3 3 4 14 15 24 11 9 19 21
17 26 -2 4 6 9 17 12 11 2 35 14 55 27 41 28 62 32 29 6 -14 -12 -18 -21 -11
-25 6 -4 27 8 47 27 20 19 52 48 72 65 38 32 34 43 -5 15 -53 -37 -28 -4 125
161 10 11 18 25 18 30 0 6 10 10 22 9 16 0 24 7 28 28 8 33 25 28 25 -7 0 -13
5 -25 11 -27 7 -2 13 -19 15 -38 3 -49 15 -100 23 -100 6 0 10 -31 13 -113 l1
-49 20 24 c25 30 18 16 -27 -59 -21 -34 -45 -64 -53 -67 -8 -3 -13 -15 -11
-26 2 -14 -5 -25 -22 -33 -14 -7 -26 -19 -26 -27 -1 -8 -2 -21 -3 -29 -1 -7
-7 -11 -16 -7 -15 6 -40 -28 -31 -43 3 -4 -6 -13 -19 -19 -22 -10 -30 -23 -22
-36 1 -2 -11 -16 -27 -29 -19 -16 -27 -31 -23 -41 9 -23 24 -20 33 7 4 12 26
45 49 72 23 28 48 61 55 75 7 14 21 31 32 38 10 7 18 19 18 26 0 7 9 21 20 31
11 10 20 27 20 37 0 10 6 21 14 24 8 3 19 18 25 32 6 15 22 45 36 67 13 22 24
48 25 58 0 9 5 17 10 17 6 0 10 11 10 24 0 14 5 28 10 31 13 8 13 45 0 65 -8
12 -12 13 -19 2 -6 -11 -9 -9 -14 7 -2 11 0 22 7 25 6 2 1 5 -11 5 -50 2 -53
8 -53 101 0 103 13 179 40 235 11 23 20 47 20 53 0 7 24 39 54 71 30 32 59 69
65 82 11 23 11 23 -6 -1 -9 -14 -40 -48 -68 -76 -47 -46 -54 -50 -89 -46 -26
3 -41 0 -47 -9 -6 -10 -9 -6 -9 14 0 16 -3 26 -7 24 -5 -3 -14 1 -21 9 -7 8
-9 14 -4 14 5 0 9 8 10 18 2 30 1 226 -2 259 -4 42 46 91 128 127 71 31 99 33
126 6 19 -19 21 -19 28 -3 14 35 4 356 -13 383 -2 3 -6 18 -9 33 -5 31 -66
155 -101 206 -5 8 -37 41 -70 73 -66 66 -115 95 -188 115 -26 7 -82 29 -124
48 -78 36 -222 76 -264 74 -13 -1 -35 -4 -49 -6z m-563 -335 c-3 -8 -6 -5 -6
6 -1 11 2 17 5 13 3 -3 4 -12 1 -19z m673 -62 c-6 -8 -18 -12 -27 -9 -12 5
-12 7 -1 14 7 5 19 9 27 9 11 0 11 -3 1 -14z m97 -78 c-3 -8 -6 -5 -6 6 -1 11
2 17 5 13 3 -3 4 -12 1 -19z m3 -22 c0 -3 -4 -8 -10 -11 -5 -3 -10 -1 -10 4 0
6 5 11 10 11 6 0 10 -2 10 -4z m-106 -472 c9 -8 16 -18 16 -20 0 -7 -38 15
-45 26 -10 16 12 12 29 -6z m-55 -33 c7 -5 10 -14 7 -20 -5 -7 1 -11 14 -11
12 0 19 -4 15 -9 -7 -12 29 -33 39 -24 3 3 6 -12 6 -34 0 -52 -31 -81 -107
-99 -141 -33 -221 -4 -228 84 -1 16 -5 34 -9 40 -4 7 -5 21 -1 31 7 24 75 28
75 4 0 -13 2 -13 17 -2 15 12 16 12 10 -3 -14 -38 61 -74 128 -60 l30 6 -39
11 c-36 10 -37 12 -21 28 9 10 21 15 26 12 5 -4 9 5 9 19 0 13 -6 27 -12 29
-7 3 -4 6 7 6 11 0 26 -3 34 -8z m-602 -36 c2 -6 -17 -10 -42 -10 -40 0 -43 2
-28 13 20 14 65 12 70 -3z m181 -43 c2 -7 -3 -12 -11 -12 -9 0 -22 -2 -30 -5
-10 -4 -13 1 -11 17 1 13 3 24 3 25 3 7 46 -16 49 -25z m-210 -14 l57 -3 5
-40 c3 -22 3 -59 1 -82 -3 -47 -17 -53 -66 -31 -36 16 -57 60 -61 132 -2 34
-1 53 2 44 4 -13 19 -18 62 -20z m177 -28 c-3 -5 -12 -10 -18 -10 -7 0 -6 4 3
10 19 12 23 12 15 0z m925 -20 c0 -5 -2 -10 -4 -10 -3 0 -8 5 -11 10 -3 6 -1
10 4 10 6 0 11 -4 11 -10z m-895 -60 c-5 -30 -11 -40 -22 -36 -8 3 -12 2 -9
-3 8 -12 -18 -21 -59 -21 -33 0 -34 1 -24 30 12 34 97 96 112 81 5 -5 6 -28 2
-51z m799 -145 c-4 -8 -8 -15 -10 -15 -2 0 -4 7 -4 15 0 8 4 15 10 15 5 0 7
-7 4 -15z m32 -60 c1 -8 -1 -15 -6 -15 -10 0 -20 26 -13 34 8 8 16 -1 19 -19z
m-306 -80 c0 -5 -5 -3 -10 5 -5 8 -10 20 -10 25 0 6 5 3 10 -5 5 -8 10 -19 10
-25z m-627 -5 c3 -11 1 -20 -4 -20 -5 0 -9 9 -9 20 0 11 2 20 4 20 2 0 6 -9 9
-20z m627 -31 c0 -6 -4 -7 -10 -4 -5 3 -10 11 -10 16 0 6 5 7 10 4 6 -3 10
-11 10 -16z m-590 -54 c28 -61 25 -90 -4 -34 -13 25 -27 56 -31 68 -12 39 13
14 35 -34z m86 18 c-7 -7 -26 7 -26 19 0 6 6 6 15 -2 9 -7 13 -15 11 -17z
m591 -105 c-3 -8 -6 -5 -6 6 -1 11 2 17 5 13 3 -3 4 -12 1 -19z m-72 -18 c3
-5 1 -10 -4 -10 -6 0 -11 5 -11 10 0 6 2 10 4 10 3 0 8 -4 11 -10z m39 -26 c3
-8 2 -12 -4 -9 -6 3 -10 10 -10 16 0 14 7 11 14 -7z m35 -26 c-5 -10 -12 -18
-15 -18 -2 0 -1 8 4 18 5 9 7 24 5 32 -4 13 -3 13 6 1 6 -10 6 -21 0 -33z
m401 -94 c0 -9 -5 -14 -12 -12 -18 6 -21 28 -4 28 9 0 16 -7 16 -16z m33 -40
c3 -4 1 -16 -5 -27 -9 -18 -11 -19 -20 -4 -13 25 6 49 25 31z"/>
<path d="M1316 1807 c3 -10 9 -15 12 -12 3 3 0 11 -7 18 -10 9 -11 8 -5 -6z"/>
<path d="M1804 2375 c-4 -8 -4 -21 -1 -29 3 -7 0 -19 -6 -25 -6 -6 -8 -14 -4
-17 12 -12 19 3 21 45 2 43 -1 51 -10 26z"/>
<path d="M970 2221 c-12 -24 -13 -34 -1 -27 9 6 22 46 15 46 -2 0 -8 -9 -14
-19z"/>
<path d="M952 2169 c2 -7 10 -15 17 -17 8 -3 12 1 9 9 -2 7 -10 15 -17 17 -8
3 -12 -1 -9 -9z"/>
<path d="M2180 2010 c-28 -28 -25 -48 3 -22 29 27 47 28 80 2 38 -30 45 -24
12 10 -33 35 -67 38 -95 10z"/>
<path d="M2090 1891 c0 -6 5 -13 10 -16 6 -3 10 1 10 9 0 9 -4 16 -10 16 -5 0
-10 -4 -10 -9z"/>
<path d="M2136 1885 c-3 -10 1 -15 12 -15 10 0 23 -5 30 -12 7 -7 12 -8 12 -2
0 11 -32 44 -42 44 -3 0 -8 -7 -12 -15z"/>
<path d="M2278 1815 c-3 -22 -9 -49 -13 -60 -3 -11 1 -7 10 8 9 15 15 42 13
60 -3 31 -3 31 -10 -8z"/>
<path d="M1940 1820 c0 -5 5 -10 11 -10 5 0 7 5 4 10 -3 6 -8 10 -11 10 -2 0
-4 -4 -4 -10z"/>
<path d="M2126 1803 c-6 -14 -5 -15 5 -6 7 7 10 15 7 18 -3 3 -9 -2 -12 -12z"/>
<path d="M2102 1768 c-12 -16 -27 -68 -18 -68 7 0 38 72 33 77 -2 2 -9 -2 -15
-9z"/>
<path d="M2130 1615 c0 -8 4 -15 10 -15 5 0 7 7 4 15 -4 8 -8 15 -10 15 -2 0
-4 -7 -4 -15z"/>
<path d="M1405 1500 c3 -5 8 -10 11 -10 2 0 4 5 4 10 0 6 -5 10 -11 10 -5 0
-7 -4 -4 -10z"/>
<path d="M1395 1370 c-3 -5 1 -10 10 -10 9 0 13 5 10 10 -3 6 -8 10 -10 10 -2
0 -7 -4 -10 -10z"/>
<path d="M1332 1348 c-8 -8 -37 -12 -72 -12 -59 1 -78 -9 -41 -21 11 -3 46 2
78 11 59 16 90 34 62 34 -8 0 -21 -6 -27 -12z"/>
<path d="M1573 1195 c3 -26 19 -35 25 -16 2 6 -1 11 -7 11 -6 0 -8 7 -5 15 4
8 1 15 -5 15 -7 0 -10 -11 -8 -25z"/>
<path d="M1565 1130 c3 -5 8 -10 11 -10 2 0 4 5 4 10 0 6 -5 10 -11 10 -5 0
-7 -4 -4 -10z"/>
<path d="M2206 1105 c10 -38 7 -86 -6 -99 -5 -5 -10 -16 -10 -24 0 -28 -98
-206 -148 -267 -4 -5 -28 -39 -52 -75 -25 -36 -51 -70 -59 -76 -15 -12 -9 -44
8 -44 5 0 13 10 17 23 4 12 20 38 36 57 39 48 42 51 64 85 10 17 24 36 31 43
7 7 13 17 13 22 0 5 6 15 13 22 15 14 39 56 59 101 7 15 16 27 20 27 4 0 8 11
8 24 0 14 4 27 9 30 5 4 13 25 17 49 l8 42 7 -45 c3 -25 2 -46 -2 -48 -5 -2
-9 -12 -9 -23 0 -11 -4 -27 -9 -37 -5 -9 -20 -39 -33 -65 -40 -82 -51 -102
-66 -113 -9 -6 -13 -18 -9 -28 4 -9 2 -16 -3 -16 -5 0 -18 -10 -29 -22 -16
-16 -18 -25 -9 -35 9 -11 7 -12 -7 -7 -12 5 -16 3 -14 -5 8 -23 23 -16 46 19
13 19 29 43 36 53 6 10 12 23 12 30 0 7 8 18 18 26 10 7 22 23 28 35 5 11 13
28 17 36 24 42 32 61 32 79 0 11 4 21 10 23 21 7 16 91 -8 153 -27 68 -48 97
-36 50z"/>
<path d="M1340 1090 c0 -5 5 -10 11 -10 5 0 7 5 4 10 -3 6 -8 10 -11 10 -2 0
-4 -4 -4 -10z"/>
<path d="M2285 930 c4 -12 2 -26 -3 -33 -5 -7 -13 -28 -16 -47 -8 -39 -34 -98
-54 -118 -7 -8 -10 -23 -6 -34 4 -13 2 -18 -4 -14 -14 8 -46 -39 -37 -54 11
-17 21 -11 38 23 10 17 28 52 42 76 14 24 25 50 25 58 0 7 4 13 9 13 4 0 13
24 18 53 9 48 10 50 20 27 6 -14 7 -27 3 -30 -4 -3 -11 -25 -15 -50 -4 -24
-11 -51 -16 -60 -4 -8 -17 -36 -29 -62 -11 -25 -28 -52 -36 -58 -7 -7 -14 -18
-14 -25 0 -6 -9 -20 -20 -30 -11 -10 -20 -26 -19 -34 3 -31 -1 -40 -15 -35
-14 6 -30 -22 -20 -37 10 -17 25 -9 35 21 6 17 15 30 19 30 5 0 12 10 16 23 3
12 13 30 22 40 38 43 87 150 111 240 9 34 7 45 -17 88 -27 49 -49 66 -37 29z"/>
<path d="M1045 778 c-124 -63 -191 -89 -325 -123 -155 -40 -207 -61 -280 -115
-107 -79 -177 -166 -210 -263 -37 -104 -44 -152 -35 -222 l6 -55 1400 0 1399
0 0 235 0 235 -57 26 c-32 14 -67 33 -78 44 -11 10 -40 27 -65 37 -25 10 -90
45 -145 77 -300 178 -285 172 -297 106 -5 -25 -13 -54 -18 -65 -33 -77 -53
-115 -66 -126 -8 -7 -13 -18 -10 -25 3 -8 -2 -18 -12 -23 -9 -5 -17 -22 -18
-38 0 -15 -5 -28 -10 -28 -19 0 -31 -16 -31 -40 0 -13 3 -22 8 -19 14 8 11
-10 -6 -32 -14 -18 -14 -18 -8 4 3 12 1 22 -5 22 -14 0 -25 -19 -28 -48 -2
-20 -1 -22 13 -10 11 9 8 -2 -8 -32 -35 -65 -88 -140 -100 -140 -5 0 5 18 22
40 24 29 30 43 22 51 -16 16 -36 0 -30 -22 3 -11 1 -19 -3 -19 -5 0 -15 -2
-22 -5 -9 -4 -19 4 -26 20 -7 14 -7 24 -2 22 14 -3 53 60 41 67 -12 8 -41 -21
-41 -40 0 -21 -13 -16 -34 13 -11 14 -14 23 -8 19 16 -10 28 22 13 37 -8 8
-14 8 -22 0 -8 -8 -16 -7 -30 5 -23 20 -25 34 -4 26 8 -4 15 -1 15 5 0 6 -10
13 -23 16 -13 4 -51 39 -84 78 -58 70 -59 74 -45 97 9 15 4 12 -12 -7 -26 -31
-56 -47 -40 -21 11 17 12 48 3 48 -9 0 -23 -37 -24 -59 0 -8 -12 -18 -28 -22
-29 -8 -35 -1 -15 19 7 7 8 12 2 12 -6 0 -19 -9 -28 -19 -13 -15 -14 -20 -4
-24 8 -3 4 -8 -12 -15 -16 -6 -29 -6 -37 0 -8 6 -15 3 -23 -12 -6 -11 -16 -18
-21 -14 -6 3 -24 -7 -40 -22 -28 -27 -31 -28 -41 -11 -5 10 -19 23 -31 28 -18
8 -16 9 11 4 22 -3 31 -1 26 6 -6 10 -97 5 -130 -8 -7 -2 -25 10 -41 27 -27
31 -120 82 -155 85 -17 2 -22 -6 -19 -31 1 -6 -10 -16 -24 -22 -14 -6 -25 -18
-25 -26 0 -9 -9 -20 -20 -26 -11 -6 -20 -16 -20 -23 0 -7 -6 -21 -12 -30 -12
-15 -13 -14 -13 10 0 16 4 34 9 41 4 7 6 16 3 19 -6 5 -28 -32 -26 -44 4 -21
-2 -60 -11 -73 -8 -12 -12 -13 -19 -2 -6 10 -11 3 -15 -24 -5 -25 -10 -33 -16
-25 -10 17 -22 -2 -14 -23 3 -9 1 -16 -5 -16 -19 0 -12 34 18 91 67 127 160
317 174 359 29 85 36 110 29 109 -4 0 -52 -23 -107 -51z m226 -275 c13 -15 12
-15 -8 -4 -24 12 -29 21 -14 21 5 0 15 -7 22 -17z"/>
<path d="M1200 737 c0 -8 11 -24 25 -37 29 -27 31 -21 10 20 -16 31 -35 40
-35 17z"/>
<path d="M1200 666 c0 -9 13 -29 28 -44 15 -15 34 -40 42 -55 8 -16 16 -24 18
-18 5 14 -39 90 -67 115 -19 17 -21 18 -21 2z"/>
<path d="M1876 664 c-5 -14 -4 -15 9 -4 17 14 19 20 6 20 -5 0 -12 -7 -15 -16z"/>
<path d="M1107 643 c-4 -3 -7 -13 -7 -22 1 -13 3 -13 11 2 11 19 8 33 -4 20z"/>
<path d="M1807 623 c-10 -9 -9 -23 2 -23 5 0 11 7 15 15 5 15 -5 20 -17 8z"/>
<path d="M2136 604 c-9 -8 -16 -18 -16 -22 0 -4 -11 -20 -25 -36 -26 -30 -28
-47 -7 -54 7 -2 19 12 27 32 9 20 19 36 24 36 7 0 31 43 31 55 0 10 -19 4 -34
-11z"/>
<path d="M1190 605 c0 -17 48 -70 56 -62 4 4 -6 22 -24 40 -18 17 -32 27 -32
22z"/>
<path d="M1082 578 c-16 -21 -44 -80 -39 -84 2 -2 16 18 31 46 26 48 30 64 8
38z"/>
<path d="M2021 559 c-6 -18 -9 -34 -6 -37 7 -8 46 40 42 52 -7 22 -25 15 -36
-15z"/>
<path d="M1309 513 c9 -18 14 -20 35 -10 13 7 22 15 20 19 -3 5 -13 4 -23 -2
-12 -6 -22 -5 -31 3 -10 10 -10 8 -1 -10z"/>
<path d="M1896 501 c-21 -23 -21 -40 1 -37 18 3 37 42 24 50 -5 3 -16 -3 -25
-13z"/>
<path d="M1982 508 c-17 -17 -15 -37 4 -34 18 3 35 26 28 38 -7 11 -18 10 -32
-4z"/>
<path d="M1370 490 c-8 -5 -11 -12 -8 -15 4 -4 17 0 30 9 24 17 5 23 -22 6z"/>
<path d="M2041 466 c-8 -10 -7 -17 5 -27 13 -11 17 -10 25 2 12 20 11 26 -5
32 -8 3 -19 0 -25 -7z"/>
<path d="M1944 445 c-9 -23 14 -45 26 -25 5 8 8 19 7 24 -6 17 -27 18 -33 1z"/>
<path d="M2105 429 c-10 -15 -16 -59 -9 -59 9 0 44 41 44 50 0 13 -29 20 -35
9z"/>
<path d="M2002 391 c-10 -28 -9 -29 11 -22 12 5 22 16 22 26 0 31 -22 28 -33
-4z"/>
<path d="M2063 354 c-9 -23 11 -38 26 -20 13 16 7 36 -10 36 -5 0 -12 -7 -16
-16z"/>
<path d="M2119 318 c-1 -2 -2 -18 -4 -35 l-3 -33 19 24 c23 29 24 46 4 46 -8
0 -15 -1 -16 -2z"/>
</g>
</svg>
